# xmcd
#
# Track frame offsets:
#	150
#	10607
#	24745
#	33391
#	42563
#	56493
#	67446
#	82703
#	96590
#	109515
#	130331
#	144938
#	158596
#	171980
#	185315
#	201753
#	213733
#	231780
#	243766
#	253386
#	264618
#
# Disc length: 3704 seconds
#
# Revision: 1
# Processed by: cddbd v1.5.1PL2 Copyright (c) Steve Scherf et al.
# Submitted via: audiograbber 1.83.01
#
DISCID=2b0e7615
DTITLE=Various Artist - Portraits of Country Music
DYEAR=1900
DGENRE=
TTITLE0=Worley, Shane - Waltzing Mrs. Santa
TTITLE1=Sims, Wade - Neat little package
TTITLE2=Horner, Tom - Wishing his parents weren't poor
TTITLE3=Horner, Tom -  Baby Christ Child
TTITLE4=Hicks, Pam - Almost gone
TTITLE5=O'Donnel, Darryl Lee - She's out of my hands
TTITLE6=Wood, Elaine - Give me one good reason
TTITLE7=Reddin, Danielle - Don't come cryin' to me
TTITLE8=Reddin, Danielle -  Walkin' and talkin'
TTITLE9=Steel, J.T. - Half a man
TTITLE10=Filt, Anni - I won't take it anymore
TTITLE11=Henderson, Pete - flowers blooming in the wildwood
TTITLE12=Baker, Rick - Adios amigo
TTITLE13=Black, Sherrill - Don't play with my heart
TTITLE14=Frame, Merritta - Determined
TTITLE15=Berry, Benny - The healing has happened
TTITLE16=Mehaffey, Derrick - The never lasting kind
TTITLE17=Lyda, Jacob - That's what I thought you wanted me to do
TTITLE18=Atkins, Bobby D. - Lookin' lucky
TTITLE19=Swafford, Glenn - Sioux City Sue
TTITLE20=Headrick, Mike - Springtime in Austin (instr.)
EXTD=
EXTT0=
EXTT1=
EXTT2=
EXTT3=
EXTT4=
EXTT5=
EXTT6=
EXTT7=
EXTT8=
EXTT9=
EXTT10=
EXTT11=
EXTT12=
EXTT13=
EXTT14=
EXTT15=
EXTT16=
EXTT17=
EXTT18=
EXTT19=
EXTT20=
PLAYORDER=
